<?xml version="1.0" encoding="UTF-8"?>
<svg version="1.1" xmlns="http://www.w3.org/2000/svg" width="242" height="239">
<path d="M0 0 C79.86 0 159.72 0 242 0 C242 78.87 242 157.74 242 239 C162.14 239 82.28 239 0 239 C0 160.13 0 81.26 0 0 Z " fill="#F1F0F1" transform="translate(0,0)"/>
<path d="M0 0 C2.51028901 0.19604974 4.68813296 -0.0770622 7.17578125 -0.4453125 C15.03841697 -1.33633094 21.01147776 0.92394114 27.23828125 5.6796875 C28.61530124 6.81929025 29.97206562 7.98411515 31.30078125 9.1796875 C32.13802734 9.90671875 32.13802734 9.90671875 32.9921875 10.6484375 C35.89253921 14.04228189 35.64410479 18.67136926 35.57421875 22.94140625 C34.89025933 28.54010264 30.53050485 32.39680911 26.34375 35.7890625 C19.1704593 40.67183781 12.77916751 41.42124873 4.30078125 41.1796875 C4.34532063 45.43051055 4.41554612 49.67995127 4.50830078 53.92993164 C4.53630588 55.37187222 4.55762093 56.81396048 4.57177734 58.25610352 C4.65049778 65.82638535 4.78714827 72.36535873 8.39697266 79.21362305 C9.95641257 82.60588929 9.93833474 85.9365814 9.86328125 89.6171875 C9.858125 90.34929443 9.85296875 91.08140137 9.84765625 91.83569336 C9.63436852 98.19012424 7.75008915 102.85492239 4.30078125 108.1796875 C5.19216797 108.25485596 5.19216797 108.25485596 6.1015625 108.33154297 C8.83525534 108.56590505 11.56797335 108.81023072 14.30078125 109.0546875 C15.23535156 109.13332031 16.16992188 109.21195312 17.1328125 109.29296875 C31.69961959 110.61722394 31.69961959 110.61722394 37.30078125 114.1796875 C41.28763348 121.43927277 40.71946805 130.29395565 40.61328125 138.3046875 C40.61650391 139.52800781 40.61972656 140.75132812 40.62304688 142.01171875 C40.58339405 148.68060346 39.96491953 153.52313439 38.30078125 160.1796875 C-6.57921875 160.1796875 -51.45921875 160.1796875 -97.69921875 160.1796875 C-97.69921875 130.46540179 -97.69921875 130.46540179 -93.69921875 120.1796875 C-94.28703125 119.92058594 -94.87484375 119.66148437 -95.48046875 119.39453125 C-102.21274058 115.70837537 -105.78508004 108.99019487 -108.0390625 101.90625 C-109.97178755 93.92375244 -108.70869994 87.34509086 -104.69921875 80.1796875 C-99.16848983 72.52544661 -92.97765702 67.49929707 -83.69921875 65.1796875 C-75.38803933 64.08253341 -67.08783673 64.04702072 -58.71875 64.08203125 C-57.42474777 64.0834462 -56.13074554 64.08486115 -54.79753113 64.08631897 C-51.39625024 64.09009445 -47.99501366 64.09988081 -44.59375 64.11102295 C-41.10742797 64.12134537 -37.62109861 64.12583954 -34.13476562 64.13085938 C-27.32289874 64.14150877 -20.51106088 64.15852362 -13.69921875 64.1796875 C-13.71032181 63.46638275 -13.72142487 62.753078 -13.73286438 62.01815796 C-13.833249 55.28015457 -13.90927552 48.5423613 -13.95827961 41.80377769 C-13.98432101 38.33972525 -14.01961567 34.87629312 -14.07641602 31.41259766 C-14.14137561 27.42618356 -14.16544462 23.44001644 -14.1875 19.453125 C-14.21330643 18.21541351 -14.23911285 16.97770203 -14.26570129 15.70248413 C-14.26882601 6.09845008 -14.26882601 6.09845008 -11.35620117 2.41259766 C-7.26668021 -1.02420826 -5.09407772 -0.76364602 0 0 Z " fill="#3C3F46" transform="translate(181.69921875,78.8203125)"/>
<path d="M0 0 C5.91048141 11.82096282 2.05959355 30.76162579 -1 43 C-38.29 43 -75.58 43 -114 43 C-114 30.08067229 -113.60572123 19.13522146 -110 7 C-108.80455566 6.970271 -108.80455566 6.970271 -107.58496094 6.93994141 C-103.97297528 6.84466752 -100.36156601 6.73499693 -96.75 6.625 C-94.86861328 6.57859375 -94.86861328 6.57859375 -92.94921875 6.53125 C-91.74394531 6.49257812 -90.53867188 6.45390625 -89.296875 6.4140625 C-88.18666992 6.3826416 -87.07646484 6.3512207 -85.93261719 6.31884766 C-83.07832029 6.00851534 -81.43328954 5.45681717 -79 4 C-71.16358802 0.08179401 -58.64106567 1.89375739 -50 2 C-50 2.33 -50 2.66 -50 3 C-37.98755687 2.49505217 -26.0244495 1.73845046 -14.04882812 0.66064453 C-9.34875782 0.24431211 -4.72481078 -0.12012231 0 0 Z " fill="#111419" transform="translate(217,196)"/>
<path d="M0 0 C1.39961035 0.00373776 2.79922336 0.00658112 4.19883728 0.00857544 C7.85337762 0.01615189 11.50775483 0.03574764 15.16223145 0.0579834 C18.90305333 0.07857209 22.64390279 0.08771498 26.38476562 0.09765625 C33.70326829 0.11793473 41.02132508 0.15709569 48.33984375 0.1953125 C48.33984375 13.0653125 48.33984375 25.9353125 48.33984375 39.1953125 C46.85484375 39.6903125 46.85484375 39.6903125 45.33984375 40.1953125 C45.32566406 39.31488281 45.31148438 38.43445313 45.296875 37.52734375 C45.07745306 30.3437648 45.07745306 30.3437648 42.27734375 23.8828125 C38.14869161 21.51103361 36.0679036 21.51987538 31.33984375 22.1953125 C28.60922799 23.50911068 28.60922799 23.50911068 27.33984375 26.1953125 C27.41461049 30.7560838 28.04273228 33.5297828 29.90234375 37.6953125 C31.63829924 41.92198673 31.57768176 44.67639026 31.33984375 49.1953125 C31.99984375 49.1953125 32.65984375 49.1953125 33.33984375 49.1953125 C33.33984375 40.9453125 33.33984375 32.6953125 33.33984375 24.1953125 C32.67984375 23.8653125 32.01984375 23.5353125 31.33984375 23.1953125 C32.33984375 22.1953125 32.33984375 22.1953125 34.65234375 21.9453125 C37.91402491 22.2487247 39.02508664 22.90092696 41.33984375 25.1953125 C41.80981445 27.81494141 41.80981445 27.81494141 41.765625 30.921875 C41.75305664 32.5925 41.75305664 32.5925 41.74023438 34.296875 C41.71123047 35.45960938 41.68222656 36.62234375 41.65234375 37.8203125 C41.64267578 38.99078125 41.63300781 40.16125 41.62304688 41.3671875 C41.50750707 50.02764918 41.50750707 50.02764918 40.33984375 51.1953125 C27.38931072 53.04346148 14.39850562 53.39002376 1.33984375 53.3828125 C0.3039209 53.3840361 0.3039209 53.3840361 -0.75292969 53.38528442 C-30.13447005 53.38135874 -30.13447005 53.38135874 -34.2578125 49.8125 C-40.65882916 42.19955752 -42.23796039 36.6139552 -42.015625 26.640625 C-41.52095784 21.84615864 -40.09445521 18.30638382 -37.66015625 14.1953125 C-37.12390625 13.1434375 -36.58765625 12.0915625 -36.03515625 11.0078125 C-26.70402519 -0.04221112 -13.37106216 -0.10577417 0 0 Z " fill="#14161A" transform="translate(119.66015625,145.8046875)"/>
<path d="M0 0 C9.37617657 7.24793332 9.37617657 7.24793332 10 12 C10.50684398 16.56990473 10.484981 20.01063877 8.4375 24.1875 C3.00237146 30.45880216 -2.72756416 35.11738408 -11 37 C-14.33820456 37.12900657 -17.66124071 37.09512598 -21 37 C-20.96447021 37.80703369 -20.92894043 38.61406738 -20.89233398 39.44555664 C-20.23226313 55.08339558 -19.84199838 70.66405974 -20.3125 86.3125 C-20.32965057 86.9844339 -20.34680115 87.6563678 -20.36447144 88.34866333 C-20.41545754 90.2497 -20.48274118 92.15027854 -20.55078125 94.05078125 C-20.58856689 95.13012939 -20.62635254 96.20947754 -20.6652832 97.3215332 C-21 100 -21 100 -23 103 C-23.66 103 -24.32 103 -25 103 C-25 103.99 -25 104.98 -25 106 C-26.43489809 106.13536774 -27.87347107 106.23217143 -29.3125 106.3125 C-30.11300781 106.37050781 -30.91351563 106.42851562 -31.73828125 106.48828125 C-34 106 -34 106 -35.62007141 104.07295227 C-37.55030896 99.77452125 -37.39594616 96.0044797 -37.34057617 91.34448242 C-37.34101425 90.3781488 -37.34145233 89.41181519 -37.34190369 88.41619873 C-37.33981731 85.22908166 -37.31649294 82.04249368 -37.29296875 78.85546875 C-37.28737227 76.64301338 -37.28310242 74.43055429 -37.28010559 72.21809387 C-37.26866097 66.39997054 -37.23919683 60.58207251 -37.20599365 54.76403809 C-37.17528468 48.82514493 -37.16159847 42.88621532 -37.14648438 36.94726562 C-37.11432697 25.29807819 -37.06313503 13.64905784 -37 2 C-35.68 2 -34.36 2 -33 2 C-33 34.34 -33 66.68 -33 100 C-29.7 100 -26.4 100 -23 100 C-23.33 66.34 -23.66 32.68 -24 -2 C-23.34 -1.67 -22.68 -1.34 -22 -1 C-21.67 -1.66 -21.34 -2.32 -21 -3 C-21.66 -3.33 -22.32 -3.66 -23 -4 C-15.0889627 -6.37331119 -6.7154969 -4.55046218 0 0 Z " fill="#6D6F74" transform="translate(207,83)"/>
<path d="M0 0 C5 0 5 0 8 2 C8.36914349 3.80783272 8.36914349 3.80783272 8.36076355 6.03689575 C8.36488754 6.88106049 8.36901154 7.72522522 8.3732605 8.5949707 C8.36247467 9.522854 8.35168884 10.4507373 8.34057617 11.40673828 C8.34101425 12.38238739 8.34145233 13.3580365 8.34190369 14.36325073 C8.33980794 17.59913917 8.31643971 20.8345142 8.29296875 24.0703125 C8.2873756 26.30947588 8.28310418 28.54864292 8.28010559 30.78781128 C8.26863477 36.68982018 8.23914828 42.59160865 8.20599365 48.49353027 C8.17534097 54.51258359 8.16161053 60.53167243 8.14648438 66.55078125 C8.11428078 78.36728451 8.0630574 90.18362395 8 102 C5.36 102 2.72 102 0 102 C0 68.34 0 34.68 0 0 Z " fill="#0D0F13" transform="translate(176,81)"/>
<path d="M0 0 C1.00264893 0.00749268 2.00529785 0.01498535 3.03833008 0.02270508 C4.29798584 0.05001709 5.5576416 0.0773291 6.85546875 0.10546875 C10.87734375 0.16734375 14.89921875 0.22921875 19.04296875 0.29296875 C19.04296875 13.16296875 19.04296875 26.03296875 19.04296875 39.29296875 C17.55796875 39.78796875 17.55796875 39.78796875 16.04296875 40.29296875 C16.02878906 39.41253906 16.01460937 38.53210938 16 37.625 C15.78057806 30.44142105 15.78057806 30.44142105 12.98046875 23.98046875 C8.85181661 21.60868986 6.7710286 21.61753163 2.04296875 22.29296875 C-1.76083 24.89556789 -2.76826322 27.93415265 -3.95703125 32.29296875 C-5.27703125 31.63296875 -6.59703125 30.97296875 -7.95703125 30.29296875 C-7.62703125 28.64296875 -7.29703125 26.99296875 -6.95703125 25.29296875 C-8.60703125 25.62296875 -10.25703125 25.95296875 -11.95703125 26.29296875 C-13.48969707 23.22763711 -13.05979596 20.02542603 -13.01953125 16.66796875 C-13.01501953 15.9615625 -13.01050781 15.25515625 -13.00585938 14.52734375 C-12.99407 12.782516 -12.97613449 11.03773175 -12.95703125 9.29296875 C-11.63703125 8.96296875 -10.31703125 8.63296875 -8.95703125 8.29296875 C-9.61703125 6.64296875 -10.27703125 4.99296875 -10.95703125 3.29296875 C-7.14222296 0.63639141 -4.6288701 -0.07121339 0 0 Z " fill="#080C11" transform="translate(148.95703125,145.70703125)"/>
<path d="M0 0 C22.23150358 1.48210024 22.23150358 1.48210024 30 9 C31.18306728 11.36613456 31.13354608 12.86780736 31.125 15.5 C31.12886719 16.69109375 31.12886719 16.69109375 31.1328125 17.90625 C31 20 31 20 30 22 C28.328125 22.78125 28.328125 22.78125 26.25 23.5 C25.53328125 23.75394531 24.8165625 24.00789063 24.078125 24.26953125 C23.04945313 24.63111328 23.04945313 24.63111328 22 25 C20.33094605 25.66066719 18.6630584 26.32438252 17 27 C17 27.66 17 28.32 17 29 C10.75456339 31.17232578 7.17123033 31 0 31 C0 20.77 0 10.54 0 0 Z " fill="#090B10" transform="translate(186,84)"/>
<path d="M0 0 C0.99 0.66 1.98 1.32 3 2 C2.54051372 4.82255855 2.07469292 7.635872 1.5 10.4375 C-0.53171442 20.85003638 -0.64252786 31.42635048 -1 42 C-5.95 42 -10.9 42 -16 42 C-16.02314764 37.50164226 -16.04300216 33.00349713 -16.05493164 28.50512695 C-16.05991292 26.97972914 -16.06670038 25.45433599 -16.07543945 23.92895508 C-16.12406704 15.21317608 -15.97255027 6.67637369 -15 -2 C-19.29 -2.33 -23.58 -2.66 -28 -3 C-28 -3.33 -28 -3.66 -28 -4 C-24.6519367 -4.51384065 -21.29799537 -4.95075141 -17.9375 -5.375 C-16.99455078 -5.52066406 -16.05160156 -5.66632813 -15.08007812 -5.81640625 C-7.78944569 -6.68010487 -4.9324477 -5.24109162 0 0 Z " fill="#D6D4D7" transform="translate(85,197)"/>
<path d="M0 0 C5.12806286 0.05352884 10.11589164 1.17299704 15.125 2.1875 C14.279375 2.8475 13.43375 3.5075 12.5625 4.1875 C9.71117359 7.05258956 9.71117359 7.05258956 10.125 11.125 C10.84441139 14.81984103 12.31730163 17.88648559 14.125 21.1875 C14.125 21.8475 14.125 22.5075 14.125 23.1875 C16.435 22.5275 18.745 21.8675 21.125 21.1875 C20.980625 22.46625 20.83625 23.745 20.6875 25.0625 C20.12685355 30.10030884 19.61998469 35.14286879 19.125 40.1875 C16.02158368 41.15159986 13.36371528 41.63314722 10.125 41.1875 C7.09452526 38.67140032 5.21197379 35.49787222 3.125 32.1875 C1.86109875 30.3701593 0.59040975 28.55751771 -0.6875 26.75 C-1.25082031 25.92628906 -1.81414062 25.10257813 -2.39453125 24.25390625 C-3.84996729 22.10387325 -3.84996729 22.10387325 -5.875 20.1875 C-6.69371976 13.81834189 -5.77972234 7.29095335 -3.875 1.1875 C-2.875 0.1875 -2.875 0.1875 0 0 Z " fill="#07090E" transform="translate(90.875,152.8125)"/>
<path d="M0 0 C0.76136084 2.28408251 1.05265767 3.74423416 0.5625 6.125 C-0.95181371 13.64804216 -0.95181371 13.64804216 1.05859375 20.78125 C2.05499515 21.88296212 3.08523395 22.9546603 4.140625 24 C7.36319674 27.46629566 9.72052076 31.54794521 12.265625 35.5234375 C13.76306795 38.07990773 13.76306795 38.07990773 16 39 C17.54023996 39.06950541 19.08334988 39.08452357 20.625 39.0625 C21.85089844 39.04896484 21.85089844 39.04896484 23.1015625 39.03515625 C23.72804688 39.02355469 24.35453125 39.01195312 25 39 C24.95875 38.05125 24.9175 37.1025 24.875 36.125 C25 33 25 33 27 31 C29.15634036 31 30.92446352 31.4465236 33 32 C33.0272415 33.41655793 33.04650467 34.83327045 33.0625 36.25 C33.07410156 37.03890625 33.08570313 37.8278125 33.09765625 38.640625 C33.00385306 40.90691002 32.63241063 42.8288895 32 45 C3.79786797 45.42162656 3.79786797 45.42162656 -0.59765625 41.6171875 C-6.99867291 34.00424502 -8.57780414 28.4186427 -8.35546875 18.4453125 C-7.61414402 11.26016516 -4.13569293 5.76042943 0 0 Z " fill="#1A1B20" transform="translate(86,154)"/>
<path d="M0 0 C3.63 0.66 7.26 1.32 11 2 C10.44661458 4.27864583 9.89322917 6.55729167 9.33984375 8.8359375 C8.77890681 11.04161284 8.77890681 11.04161284 10 13 C10.66 12.67 11.32 12.34 12 12 C12.17258669 21.05121285 11.6171694 29.97389756 11 39 C6.05 39 1.1 39 -4 39 C-4.68832237 9.37664474 -4.68832237 9.37664474 0 0 Z " fill="#62666F" transform="translate(92,200)"/>
<path d="M0 0 C8.96284102 -0.78316087 8.96284102 -0.78316087 13.0625 2.3125 C15.95390626 6.3231603 16.13673281 9.23444731 16.125 14.0625 C16.12886719 15.65771484 16.12886719 15.65771484 16.1328125 17.28515625 C16 20 16 20 15 22 C10.25 21.125 10.25 21.125 8 20 C8 20.66 8 21.32 8 22 C4.7 22.66 1.4 23.32 -2 24 C-1.67 23.01 -1.34 22.02 -1 21 C-1.721875 21.680625 -2.44375 22.36125 -3.1875 23.0625 C-6 25 -6 25 -8.8125 24.75 C-9.534375 24.5025 -10.25625 24.255 -11 24 C-11.46257335 18.21783311 -10.46911851 15.59148038 -7 11 C-6.71125 10.29875 -6.4225 9.5975 -6.125 8.875 C-4.38353273 5.97255454 -1.87674111 4.67809898 1 3 C1.66 3 2.32 3 3 3 C3 2.34 3 1.68 3 1 C2.01 0.67 1.02 0.34 0 0 Z M2 19 C6 20 6 20 6 20 Z " fill="#101318" transform="translate(118,147)"/>
<path d="M0 0 C0.99 0.33 1.98 0.66 3 1 C3.33 33.34 3.66 65.68 4 99 C6.31 99.33 8.62 99.66 11 100 C11 101.65 11 103.3 11 105 C9.56510191 105.13536774 8.12652893 105.23217143 6.6875 105.3125 C5.88699219 105.37050781 5.08648437 105.42851562 4.26171875 105.48828125 C2 105 2 105 0.38092041 103.07196045 C-1.54840357 98.78003535 -1.40377279 95.01450493 -1.35644531 90.36035156 C-1.35848969 89.39562424 -1.36053406 88.43089691 -1.36264038 87.43693542 C-1.36564376 84.25463792 -1.34718838 81.07286074 -1.328125 77.890625 C-1.32506729 75.68056364 -1.32319126 73.47050036 -1.32244873 71.26043701 C-1.3178489 66.63367313 -1.3034317 62.0070836 -1.28125 57.38037109 C-1.25290177 51.43590944 -1.24203159 45.49158475 -1.2375679 39.54706192 C-1.23342184 34.98676166 -1.22361227 30.42648935 -1.21169281 25.86620331 C-1.20597856 23.67323786 -1.2012237 21.48026971 -1.19742584 19.28730011 C-1.190589 16.23217482 -1.1769707 13.1771605 -1.16113281 10.12207031 C-1.15945602 8.75066139 -1.15945602 8.75066139 -1.15774536 7.35154724 C-1.11468987 1.11468987 -1.11468987 1.11468987 0 0 Z " fill="#ABAEB5" transform="translate(171,84)"/>
<path d="M0 0 C4.2987504 4.10542424 5.26916967 7.92120451 5.48046875 13.87719727 C5.56296957 23.1080076 4.11543338 29.09848237 -1 37 C-0.24976563 36.97679687 0.50046875 36.95359375 1.2734375 36.9296875 C8.12927937 36.80880364 14.34364917 37.35063873 21 39 C21 39.33 21 39.66 21 40 C14.53828705 41.04926327 8.12222825 41.34036414 1.58789062 41.60546875 C0.76869141 41.64285156 -0.05050781 41.68023437 -0.89453125 41.71875 C-1.63550049 41.74904297 -2.37646973 41.77933594 -3.13989258 41.81054688 C-5.09203694 41.89840065 -5.09203694 41.89840065 -7 43 C-8.83037287 43.12145993 -10.66564133 43.17543185 -12.5 43.1875 C-13.4796875 43.20167969 -14.459375 43.21585938 -15.46875 43.23046875 C-18 43 -18 43 -20 41 C-20 39.68 -20 38.36 -20 37 C-20.66 37 -21.32 37 -22 37 C-22 31.72 -22 26.44 -22 21 C-21.67 21 -21.34 21 -21 21 C-21 25.29 -21 29.58 -21 34 C-18.03 33.505 -18.03 33.505 -15 33 C-14.34 33.99 -13.68 34.98 -13 36 C-10.80545319 36.57993699 -10.80545319 36.57993699 -8.375 36.6875 C-7.55773437 36.75324219 -6.74046875 36.81898438 -5.8984375 36.88671875 C-5.27195313 36.92410156 -4.64546875 36.96148437 -4 37 C-4 36.01 -4 35.02 -4 34 C-3.34 34 -2.68 34 -2 34 C-0.83597273 30.50791819 -0.78881492 27.60852228 -0.68359375 23.92578125 C-0.66281265 23.2419487 -0.64203156 22.55811615 -0.62062073 21.8535614 C-0.55533846 19.6733079 -0.49633983 17.49293595 -0.4375 15.3125 C-0.39429447 13.83267014 -0.35067953 12.35285217 -0.30664062 10.87304688 C-0.19967917 7.24882378 -0.09835177 3.62446811 0 0 Z " fill="#23262B" transform="translate(186,152)"/>
<path d="M0 0 C0.90105469 0.19464844 1.80210937 0.38929687 2.73046875 0.58984375 C3.76107422 0.82380859 3.76107422 0.82380859 4.8125 1.0625 C4.4825 2.0525 4.1525 3.0425 3.8125 4.0625 C3.255625 3.918125 2.69875 3.77375 2.125 3.625 C-0.29690438 3.03588812 -2.74337958 2.55132408 -5.1875 2.0625 C-5.1875 35.7225 -5.1875 69.3825 -5.1875 104.0625 C-5.8475 104.0625 -6.5075 104.0625 -7.1875 104.0625 C-7.5175 71.7225 -7.8475 39.3825 -8.1875 6.0625 C-8.8475 6.0625 -9.5075 6.0625 -10.1875 6.0625 C-10.5175 38.0725 -10.8475 70.0825 -11.1875 103.0625 C-11.5175 103.0625 -11.8475 103.0625 -12.1875 103.0625 C-12.28011059 90.22364794 -12.35121975 77.38487513 -12.39474869 64.54575729 C-12.41563862 58.58425869 -12.44398238 52.62298833 -12.48925781 46.66162109 C-12.53266472 40.91040041 -12.55662651 35.15939948 -12.56700897 29.40802765 C-12.57440956 27.21192209 -12.58886089 25.01582879 -12.61042023 22.81981659 C-12.63938514 19.74777573 -12.64345883 16.67664724 -12.64160156 13.60449219 C-12.65598267 12.69315018 -12.67036377 11.78180817 -12.68518066 10.84284973 C-12.64484512 4.69201104 -12.64484512 4.69201104 -10.34661865 1.52862549 C-6.54908948 -1.05004443 -4.33049746 -0.95608385 0 0 Z " fill="#313237" transform="translate(181.1875,78.9375)"/>
<path d="M0 0 C0.33 0 0.66 0 1 0 C1.0154612 1.81284233 1.0154612 1.81284233 1.03123474 3.66230774 C1.12887768 15.03700477 1.2316031 26.41164598 1.33933926 37.78625202 C1.39456668 43.63441887 1.44798647 49.48259072 1.49731445 55.33081055 C1.54496056 60.9718232 1.59730358 66.6127743 1.65294075 72.25371361 C1.67336316 74.40872864 1.69207643 76.56376055 1.70907402 78.71880531 C1.73312043 81.73097476 1.76317484 84.74302758 1.79467773 87.75512695 C1.8004332 88.65136276 1.80618866 89.54759857 1.81211853 90.47099304 C1.82190735 91.29128998 1.83169617 92.11158691 1.84178162 92.95674133 C1.84823417 93.66928731 1.85468672 94.38183329 1.8613348 95.11597157 C1.93912056 97.22692774 1.93912056 97.22692774 3 100 C2.34 100.66 1.68 101.32 1 102 C-0.66577625 98.66844749 -0.12007856 94.93463941 -0.09765625 91.2734375 C-0.0962413 90.41062164 -0.09482635 89.54780579 -0.09336853 88.65884399 C-0.08776188 85.8975277 -0.07520827 83.13629188 -0.0625 80.375 C-0.05748586 78.5052095 -0.0529228 76.63541774 -0.04882812 74.765625 C-0.03779029 70.17705223 -0.0205212 65.58853977 0 61 C-8.02427843 61.10813993 -16.0484738 61.22089396 -24.07260609 61.33933926 C-27.79959795 61.39421314 -31.52659797 61.44757093 -35.25366211 61.49731445 C-38.85879635 61.54548891 -42.46384909 61.59784096 -46.0688839 61.65294075 C-47.43577702 61.67312692 -48.80269226 61.6918749 -50.16962624 61.70907402 C-57.40618297 61.80110018 -64.53623576 62.02133624 -71.72538757 62.89002991 C-74.04551777 63.00220064 -75.79212728 62.68382314 -78 62 C-67.39102723 57.39610616 -56.42431267 57.85442609 -45.01953125 57.90234375 C-43.87077515 57.90335083 -42.72201904 57.90435791 -41.53845215 57.90539551 C-37.29645777 57.91058012 -33.05447775 57.92454092 -28.8125 57.9375 C-14.5503125 57.9684375 -14.5503125 57.9684375 0 58 C0 38.86 0 19.72 0 0 Z " fill="#53555B" transform="translate(168,85)"/>
<path d="M0 0 C0.33 0 0.66 0 1 0 C1.06058594 0.80824219 1.12117188 1.61648437 1.18359375 2.44921875 C1.30927734 4.05216797 1.30927734 4.05216797 1.4375 5.6875 C1.51871094 6.74324219 1.59992188 7.79898438 1.68359375 8.88671875 C1.96451681 11.65086297 2.40156852 14.28945741 3 17 C4.65 16.67 6.3 16.34 8 16 C7.95875 17.11375 7.9175 18.2275 7.875 19.375 C7.58878141 23.04366025 7.58878141 23.04366025 10 25 C10 25.99 10 26.98 10 28 C6.57460428 27.58895251 3.47855216 27.18489515 0.25 25.9375 C-4.48626205 24.57127056 -9.10379989 24.8431822 -14 25 C-14.33 25.99 -14.66 26.98 -15 28 C-16.65 28 -18.3 28 -20 28 C-20.50547389 22.6925242 -19.22743563 20.17668141 -16 16 C-14 14 -14 14 -10.875 13.875 C-9.92625 13.91625 -8.9775 13.9575 -8 14 C-8 13.34 -8 12.68 -8 12 C-5.69 12.66 -3.38 13.32 -1 14 C-0.67 9.38 -0.34 4.76 0 0 Z " fill="#1E2126" transform="translate(134,155)"/>
<path d="M0 0 C0.83496002 0.00141495 1.66992004 0.0028299 2.53018188 0.00428772 C5.17901292 0.00985451 7.8277573 0.02240078 10.4765625 0.03515625 C12.27994669 0.04017555 14.08333221 0.0447377 15.88671875 0.04882812 C20.29169971 0.05981305 24.69661644 0.07705462 29.1015625 0.09765625 C27.7265625 1.59765625 27.7265625 1.59765625 26.1015625 3.09765625 C25.4415625 3.09765625 24.7815625 3.09765625 24.1015625 3.09765625 C25.0915625 5.07765625 26.0815625 7.05765625 27.1015625 9.09765625 C25.4515625 9.09765625 23.8015625 9.09765625 22.1015625 9.09765625 C22.1015625 13.05765625 22.1015625 17.01765625 22.1015625 21.09765625 C21.7715625 21.09765625 21.4415625 21.09765625 21.1015625 21.09765625 C21.1015625 17.13765625 21.1015625 13.17765625 21.1015625 9.09765625 C20.4415625 9.09765625 19.7815625 9.09765625 19.1015625 9.09765625 C18.8334375 8.31390625 18.5653125 7.53015625 18.2890625 6.72265625 C17.25341818 3.81650702 17.25341818 3.81650702 14.1015625 2.09765625 C11.76956862 2.01860561 9.43323628 2.00966856 7.1015625 2.09765625 C7.1015625 2.75765625 7.1015625 3.41765625 7.1015625 4.09765625 C-0.11342368 9.50889588 -6.09724507 9.56031062 -14.8984375 9.09765625 C-18.27753007 8.59298658 -21.5828788 7.91921062 -24.8984375 7.09765625 C-18.33235092 -0.00403256 -9.00954568 -0.05810891 0 0 Z " fill="#181A1F" transform="translate(113.8984375,145.90234375)"/>
<path d="M0 0 C2.31 0 4.62 0 7 0 C6.7834375 0.92296875 6.566875 1.8459375 6.34375 2.796875 C3.90639905 13.94236099 3.68527327 24.62321148 4 36 C1.36 36 -1.28 36 -4 36 C-4.2845949 23.68336501 -3.85283281 11.83370078 0 0 Z " fill="#04050A" transform="translate(107,203)"/>
<path d="M0 0 C0 0.66 0 1.32 0 2 C-1.52902626 2.93226067 -3.10036614 3.79551982 -4.6875 4.625 C-11.89192359 8.80295428 -14.75682848 14.11491222 -17 22 C-18.02212406 31.08076532 -17.25950795 38.40127747 -12 46 C-9.85619782 48.39915598 -9.85619782 48.39915598 -8 50 C-8 50.66 -8 51.32 -8 52 C-14.75534842 49.02231352 -18.77889631 43.29889084 -21.4375 36.5625 C-23.99260638 28.53216566 -23.79103527 22.25542141 -20.41015625 14.5 C-17.34852365 9.0721749 -13.17718833 4.45145889 -8 1 C-5.29727414 0.44842329 -2.76011506 0 0 0 Z " fill="#2F3138" transform="translate(96,147)"/>
<path d="M0 0 C0.99 0.33 1.98 0.66 3 1 C3 33.34 3 65.68 3 99 C2.34 99 1.68 99 1 99 C1 66.99 1 34.98 1 2 C0.34 1.67 -0.32 1.34 -1 1 C-0.67 0.67 -0.34 0.34 0 0 Z " fill="#76797F" transform="translate(171,84)"/>
<path d="M0 0 C2.62113708 0 4.50935112 0.31292445 7 1 C7.0272415 2.41655793 7.04650467 3.83327045 7.0625 5.25 C7.07410156 6.03890625 7.08570312 6.8278125 7.09765625 7.640625 C7.00385306 9.90691002 6.63241063 11.8288895 6 14 C-2.89252296 14.26197285 -11.24996282 13.6039348 -20 12 C-13.97784896 7.98523264 -8.00056891 7.71426249 -1 8 C-1.020625 7.05125 -1.04125 6.1025 -1.0625 5.125 C-1 2 -1 2 0 0 Z " fill="#23252A" transform="translate(112,185)"/>
<path d="M0 0 C0 3.3 0 6.6 0 10 C0.33 7.03 0.66 4.06 1 1 C1.66 1 2.32 1 3 1 C3.17563018 6.09327536 3.28693336 10.3172317 1 15 C-1.4375 16.75 -1.4375 16.75 -4 18 C-4.99 18.66 -5.98 19.32 -7 20 C-9.6875 19.625 -9.6875 19.625 -12 19 C-12.46257335 13.21783311 -11.46911851 10.59148038 -8 6 C-7.505 4.88625 -7.505 4.88625 -7 3.75 C-5.39688838 0.94455466 -3.17422874 0 0 0 Z " fill="#03050B" transform="translate(119,152)"/>
<path d="M0 0 C5 1 5 1 7 3 C7.22705078 5.33837891 7.22705078 5.33837891 7.1953125 8.2265625 C7.18886719 9.2578125 7.18242187 10.2890625 7.17578125 11.3515625 C7.15902344 12.43179688 7.14226562 13.51203125 7.125 14.625 C7.11597656 15.71296875 7.10695312 16.8009375 7.09765625 17.921875 C7.07403409 20.61480152 7.04109556 23.30729255 7 26 C4.69 26 2.38 26 0 26 C0 17.42 0 8.84 0 0 Z " fill="#090B0F" transform="translate(154,170)"/>
<path d="M0 0 C4.2987504 4.10542424 5.26916967 7.92120451 5.48046875 13.87719727 C5.56506066 23.3419743 4.0091267 28.75581231 -1 37 C2.96 37 6.92 37 11 37 C11 37.33 11 37.66 11 38 C3.74 38 -3.52 38 -11 38 C-11 37.67 -11 37.34 -11 37 C-8.69 37 -6.38 37 -4 37 C-4 36.01 -4 35.02 -4 34 C-3.34 34 -2.68 34 -2 34 C-0.83597273 30.50791819 -0.78881492 27.60852228 -0.68359375 23.92578125 C-0.6524221 22.90003242 -0.6524221 22.90003242 -0.62062073 21.8535614 C-0.55533846 19.6733079 -0.49633983 17.49293595 -0.4375 15.3125 C-0.39429447 13.83267014 -0.35067953 12.35285217 -0.30664062 10.87304688 C-0.19967917 7.24882378 -0.09835177 3.62446811 0 0 Z " fill="#31333A" transform="translate(186,152)"/>
<path d="M0 0 C1.32 0 2.64 0 4 0 C9.89705797 11.79411595 6.11893701 30.77713876 3 43 C2.01 43 1.02 43 0 43 C0.16242188 41.81921875 0.32484375 40.6384375 0.4921875 39.421875 C1.23596525 32.70947795 1.14529718 25.99543011 1.125 19.25 C1.12886719 17.94933594 1.13273438 16.64867187 1.13671875 15.30859375 C1.13542969 14.05691406 1.13414062 12.80523437 1.1328125 11.515625 C1.13168457 10.38415039 1.13055664 9.25267578 1.12939453 8.08691406 C1.01142143 5.27247658 0.64296311 2.73658382 0 0 Z " fill="#25282E" transform="translate(213,196)"/>
<path d="M0 0 C2.64 0 5.28 0 8 0 C8.33 0.99 8.66 1.98 9 3 C9.99 3 10.98 3 12 3 C11.67246974 8.24048417 8.61858392 12.37294164 5 16 C2.80078125 16.734375 2.80078125 16.734375 1 17 C-0.53266582 13.93466836 -0.10276471 10.73245728 -0.0625 7.375 C-0.05798828 6.66859375 -0.05347656 5.9621875 -0.04882812 5.234375 C-0.03703875 3.48954725 -0.01910324 1.744763 0 0 Z " fill="#02050B" transform="translate(136,155)"/>
<path d="M0 0 C-2.77804212 6.19717087 -7.70139681 9.66109276 -13.8125 12.375 C-18.91909692 14.27330484 -23.61099335 14.41277498 -29 14 C-29 12.35 -29 10.7 -29 9 C-20.585 8.01 -20.585 8.01 -12 7 C-12 6.34 -12 5.68 -12 5 C-3.29032258 0 -3.29032258 0 0 0 Z " fill="#3A3C40" transform="translate(215,106)"/>
<path d="M0 0 C1.09980411 3.33851861 0.85651493 5.58147109 0.1015625 8.98828125 C-1.1006537 15.06300899 -1.43475725 21.00857392 -1.625 27.1875 C-1.66367188 28.23486328 -1.70234375 29.28222656 -1.7421875 30.36132812 C-1.83519437 32.90739113 -1.92103284 35.45346963 -2 38 C-3.32 38 -4.64 38 -6 38 C-6.02934711 34.50001799 -6.04691445 31.00006821 -6.0625 27.5 C-6.07087891 26.51773438 -6.07925781 25.53546875 -6.08789062 24.5234375 C-6.1385137 9.33651608 -6.1385137 9.33651608 -3.5625 6.3125 C-3.046875 5.879375 -2.53125 5.44625 -2 5 C-0.80972016 2.40084462 -0.80972016 2.40084462 0 0 Z " fill="#3A3E44" transform="translate(90,201)"/>
<path d="M0 0 C1.65 0 3.3 0 5 0 C5.33 0.66 5.66 1.32 6 2 C4.02 2.99 4.02 2.99 2 4 C2.00580078 5.05405029 2.01160156 6.10810059 2.01757812 7.1940918 C2.08231034 25.50994736 1.78702647 43.82263445 1.53643799 62.13623047 C1.47508771 66.6422389 1.41535444 71.14826878 1.35546875 75.65429688 C1.23852574 84.43621918 1.11984382 93.21811681 1 102 C0.67 102 0.34 102 0 102 C0 68.34 0 34.68 0 0 Z " fill="#141519" transform="translate(176,81)"/>
<path d="M0 0 C2.51388458 0.38272281 4.24650013 1.10822577 6.4375 2.37109375 C6.1075 3.36109375 5.7775 4.35109375 5.4375 5.37109375 C2.39573657 6.29840602 -0.65428334 6.83783219 -3.77734375 7.4296875 C-6.68969794 8.09561449 -6.68969794 8.09561449 -7.94140625 10.46875 C-8.14636719 11.09652344 -8.35132812 11.72429687 -8.5625 12.37109375 C-9.5525 12.37109375 -10.5425 12.37109375 -11.5625 12.37109375 C-11.86457788 8.5196008 -11.83874851 5.96126103 -10.1875 2.43359375 C-6.71424562 -0.29539183 -4.30656029 -0.11160293 0 0 Z " fill="#525459" transform="translate(126.5625,169.62890625)"/>
<path d="M0 0 C1.32 0.66 2.64 1.32 4 2 C4 10.25 4 18.5 4 27 C3.34 27 2.68 27 2 27 C1.81824219 25.75283203 1.81824219 25.75283203 1.6328125 24.48046875 C1.46523437 23.39378906 1.29765625 22.30710938 1.125 21.1875 C0.96257812 20.10855469 0.80015625 19.02960938 0.6328125 17.91796875 C0.14867662 14.82678207 0.14867662 14.82678207 -2 12 C-2.72583618 9.34223893 -3.06653886 6.75581761 -3 4 C-1.5625 1.5 -1.5625 1.5 0 0 Z " fill="#2A2B30" transform="translate(149,168)"/>
<path d="M0 0 C16.875 1.125 16.875 1.125 24 4 C24 4.33 24 4.66 24 5 C23.22914063 4.98839844 22.45828125 4.97679688 21.6640625 4.96484375 C20.66117188 4.95582031 19.65828125 4.94679688 18.625 4.9375 C17.12839844 4.92009766 17.12839844 4.92009766 15.6015625 4.90234375 C13.01567547 4.81993398 13.01567547 4.81993398 11 6 C11 5.34 11 4.68 11 4 C7.7 3.34 4.4 2.68 1 2 C1 10.91 1 19.82 1 29 C5.29 29 9.58 29 14 29 C10 31 10 31 0 31 C0 20.77 0 10.54 0 0 Z " fill="#232429" transform="translate(186,84)"/>
<path d="M0 0 C0 0.66 0 1.32 0 2 C-0.61875 2.061875 -1.2375 2.12375 -1.875 2.1875 C-4.2167911 2.79831899 -4.2167911 2.79831899 -5 5.1875 C-5.495 6.5796875 -5.495 6.5796875 -6 8 C-6.639375 8.886875 -7.27875 9.77375 -7.9375 10.6875 C-10.23256911 14.37352008 -11.22756109 17.748461 -12.2890625 21.92578125 C-13 24 -13 24 -15 25 C-15.65555119 27.52733235 -15.65555119 27.52733235 -16 30 C-16.33 30 -16.66 30 -17 30 C-17.62647807 20.28958993 -15.36872172 13.39057524 -8.9375 6 C-3.35535714 0 -3.35535714 0 0 0 Z " fill="#45484F" transform="translate(90,148)"/>
<path d="M0 0 C3.12826838 0.29100171 4.37427733 1.19380207 6.6875 3.25 C6.3575 3.91 6.0275 4.57 5.6875 5.25 C3.7075 4.26 1.7275 3.27 -0.3125 2.25 C-0.3125 10.83 -0.3125 19.41 -0.3125 28.25 C1.6675 28.25 3.6475 28.25 5.6875 28.25 C5.6875 28.58 5.6875 28.91 5.6875 29.25 C-18.10127436 31.63776806 -18.10127436 31.63776806 -28.3125 31.25 C-28.3125 30.92 -28.3125 30.59 -28.3125 30.25 C-19.7325 29.26 -11.1525 28.27 -2.3125 27.25 C-1.9825 19 -1.6525 10.75 -1.3125 2.25 C-1.9725 1.92 -2.6325 1.59 -3.3125 1.25 C-2.3125 0.25 -2.3125 0.25 0 0 Z " fill="#1F2126" transform="translate(154.3125,167.75)"/>
<path d="M0 0 C1.66666667 0 3.33333333 0 5 0 C6.28571429 8.42857143 6.28571429 8.42857143 5 13 C2.69 13 0.38 13 -2 13 C-1.85915204 11.20793453 -1.71216299 9.41635083 -1.5625 7.625 C-1.48128906 6.62726563 -1.40007812 5.62953125 -1.31640625 4.6015625 C-1 2 -1 2 0 0 Z " fill="#202126" transform="translate(112,185)"/>
<path d="M0 0 C1.21229279 0.0028299 2.42458557 0.00565979 3.6736145 0.00857544 C7.53511539 0.01974583 11.39638203 0.04484513 15.2578125 0.0703125 C17.88020498 0.08034634 20.5026011 0.08947148 23.125 0.09765625 C29.54435039 0.11967492 35.9635647 0.15312152 42.3828125 0.1953125 C42.3828125 0.5253125 42.3828125 0.8553125 42.3828125 1.1953125 C41.76529114 1.20339935 41.14776978 1.21148621 40.51153564 1.21981812 C34.08755812 1.30583837 27.66389007 1.40534107 21.24023438 1.51269531 C18.84250076 1.55099155 16.44470957 1.58584326 14.046875 1.6171875 C10.60135308 1.66282355 7.15622778 1.7208212 3.7109375 1.78125 C2.63789368 1.79280121 1.56484985 1.80435242 0.45928955 1.81625366 C-0.54144592 1.83612335 -1.5421814 1.85599304 -2.57324219 1.87646484 C-3.45260437 1.88978851 -4.33196655 1.90311218 -5.23797607 1.9168396 C-7.78384167 2.2148184 -9.38264942 2.98514551 -11.6171875 4.1953125 C-13.9765625 4.390625 -13.9765625 4.390625 -16.3671875 4.3203125 C-17.16640625 4.30226562 -17.965625 4.28421875 -18.7890625 4.265625 C-19.39234375 4.24242187 -19.995625 4.21921875 -20.6171875 4.1953125 C-15.18001299 -1.24186201 -7.12825299 -0.06277836 0 0 Z " fill="#383B42" transform="translate(110.6171875,143.8046875)"/>
<path d="M0 0 C0.33 0 0.66 0 1 0 C0.67 7.92 0.34 15.84 0 24 C-1.32 24 -2.64 24 -4 24 C-4.62867565 15.28585694 -2.91691481 8.19080097 0 0 Z " fill="#4C5058" transform="translate(103,215)"/>
<path d="M0 0 C0.33 0 0.66 0 1 0 C1.33 5.28 1.66 10.56 2 16 C5.3 16.33 8.6 16.66 12 17 C12 18.65 12 20.3 12 22 C10.56510191 22.13536774 9.12652893 22.23217143 7.6875 22.3125 C6.88699219 22.37050781 6.08648437 22.42851562 5.26171875 22.48828125 C3 22 3 22 1.21875 20.03125 C-0.41107049 15.9775939 -0.32870959 12.50706526 -0.1875 8.1875 C-0.17396484 7.39923828 -0.16042969 6.61097656 -0.14648438 5.79882812 C-0.11133456 3.86558831 -0.05753361 1.93270318 0 0 Z " fill="#B3B6BC" transform="translate(170,167)"/>
<path d="M0 0 C-0.33 1.32 -0.66 2.64 -1 4 C-2.46373047 3.98259766 -2.46373047 3.98259766 -3.95703125 3.96484375 C-5.22933594 3.95582031 -6.50164062 3.94679687 -7.8125 3.9375 C-9.07707031 3.92589844 -10.34164062 3.91429687 -11.64453125 3.90234375 C-14.99605237 3.83840884 -14.99605237 3.83840884 -18 5 C-18.33 5.99 -18.66 6.98 -19 8 C-20.65 8 -22.3 8 -24 8 C-24 6.02 -24 4.04 -24 2 C-23.67 2 -23.34 2 -23 2 C-23 3.65 -23 5.3 -23 7 C-22.01 7 -21.02 7 -20 7 C-19.979375 6.401875 -19.95875 5.80375 -19.9375 5.1875 C-19 3 -19 3 -15.875 1.375 C-14.58996872 0.89837979 -13.29790409 0.44036031 -12 0 C-10.80375 -0.433125 -9.6075 -0.86625 -8.375 -1.3125 C-4.70255643 -2.06059036 -3.23766918 -1.76600137 0 0 Z " fill="#3E3F44" transform="translate(138,175)"/>
<path d="M0 0 C0.66 0 1.32 0 2 0 C4.65301425 7.00100981 4.29444504 14.03369784 4.25 21.4375 C4.25773438 22.72205078 4.26546875 24.00660156 4.2734375 25.33007812 C4.25990226 31.89805464 3.9984238 37.72716975 2 44 C1.34 44 0.68 44 0 44 C0.144375 43.01 0.28875 42.02 0.4375 41 C0.52773437 40.3503125 0.61796875 39.700625 0.7109375 39.03125 C0.97376063 37.18438475 1.26649039 35.34183755 1.5625 33.5 C2.84531697 23.01348031 3.37948508 10.13845524 0 0 Z " fill="#444850" transform="translate(216,195)"/>
<path d="M0 0 C0.66 0.33 1.32 0.66 2 1 C-3.76513976 6.73293228 -10.1258241 11.96519007 -18.63671875 12.015625 C-21.125 11.75 -21.125 11.75 -25 11 C-24.67 10.34 -24.34 9.68 -24 9 C-21.67997243 8.51468811 -19.34235855 8.11250787 -17 7.75 C-10.22865291 6.58530573 -5.3390109 4.47087904 0 0 Z " fill="#5D5E63" transform="translate(212,108)"/>
<path d="M0 0 C2.31 0.33 4.62 0.66 7 1 C6.14285714 9.57142857 6.14285714 9.57142857 4 13 C2.68 12.67 1.36 12.34 0 12 C0.14049518 10.52031676 0.28754826 9.04125484 0.4375 7.5625 C0.51871094 6.73878906 0.59992188 5.91507813 0.68359375 5.06640625 C1 3 1 3 2 2 C1.34 1.34 0.68 0.68 0 0 Z " fill="#42454C" transform="translate(100,201)"/>
<path d="M0 0 C0 0.33 0 0.66 0 1 C-1.98 1 -3.96 1 -6 1 C-6 1.66 -6 2.32 -6 3 C-13.84402334 3.72526532 -21.19744856 4.21074074 -29 3 C-23.37399222 -2.62600778 -7.71936773 -0.09491026 0 0 Z " fill="#2A2E34" transform="translate(167,198)"/>
<path d="M0 0 C0 0.66 0 1.32 0 2 C-2.77132017 1.69140975 -5.54199986 1.3782967 -8.3125 1.0625 C-9.09818359 0.97548828 -9.88386719 0.88847656 -10.69335938 0.79882812 C-11.8293457 0.66831055 -11.8293457 0.66831055 -12.98828125 0.53515625 C-14.03302612 0.41732788 -14.03302612 0.41732788 -15.09887695 0.29711914 C-17 0 -17 0 -20 -1 C-20 -1.66 -20 -2.32 -20 -3 C-12.28643032 -4.14849931 -6.71113993 -4.47409329 0 0 Z " fill="#83868B" transform="translate(207,83)"/>
<path d="M0 0 C4.8 2.46153846 4.8 2.46153846 5.8125 5.1875 C5.874375 5.785625 5.93625 6.38375 6 7 C2.54567894 6.58548147 -0.63726741 6.12348344 -3.9375 5 C-7.6534437 3.78663063 -11.11506079 3.40189026 -15 3 C-15 2.67 -15 2.34 -15 2 C-10.38 2 -5.76 2 -1 2 C-0.67 1.34 -0.34 0.68 0 0 Z " fill="#24252A" transform="translate(138,176)"/>
<path d="M0 0 C25.45516111 -0.58146307 25.45516111 -0.58146307 32 5 C31 6 31 6 27.9375 6.0625 C26.968125 6.041875 25.99875 6.02125 25 6 C24.67 5.01 24.34 4.02 24 3 C21.375 2.78125 21.375 2.78125 18.75 2.5625 C15.34375 2.27864583 11.9375 1.99479167 8.53125 1.7109375 C6.90703125 1.57558594 6.90703125 1.57558594 5.25 1.4375 C2.625 1.21875 2.625 1.21875 0 1 C0 0.67 0 0.34 0 0 Z " fill="#696B71" transform="translate(185,188)"/>
<path d="M0 0 C0.66 0.33 1.32 0.66 2 1 C1.505 2.11375 1.01 3.2275 0.5 4.375 C-1.03735837 8.46508831 -1.128027 11.80163997 -0.97265625 16.125 C-1.02665384 21.80246112 -2.0970646 27.40502528 -3 33 C-3.33 33 -3.66 33 -4 33 C-4.47270203 10.59917623 -4.47270203 10.59917623 0 0 Z " fill="#0C0E13" transform="translate(114,203)"/>
<path d="M0 0 C0 0.66 0 1.32 0 2 C-1.52902626 2.93226067 -3.10036614 3.79551982 -4.6875 4.625 C-12.89928685 9.415209 -15.4765537 16.13716422 -18 25 C-19.50656149 20.65640713 -18.15257808 18.36950745 -16.2421875 14.390625 C-11.01976285 4.33992095 -11.01976285 4.33992095 -7.84375 3.28125 C-7.2353125 3.1884375 -6.626875 3.095625 -6 3 C-6 2.34 -6 1.68 -6 1 C-3.92446352 0.4465236 -2.15634036 0 0 0 Z " fill="#2A2C32" transform="translate(96,147)"/>
<path d="M0 0 C0.99 0.495 0.99 0.495 2 1 C2.33 8.59 2.66 16.18 3 24 C2.01 24 1.02 24 0 24 C0 16.08 0 8.16 0 0 Z " fill="#606368" transform="translate(162,171)"/>
<path d="M0 0 C0.33 0 0.66 0 1 0 C1.02505615 1.16571533 1.0501123 2.33143066 1.07592773 3.5324707 C1.17004691 7.85436131 1.27025669 12.1760929 1.37231445 16.49780273 C1.41564622 18.36885866 1.45732257 20.23995369 1.49731445 22.11108398 C1.55505949 24.79943631 1.61874181 27.48759215 1.68359375 30.17578125 C1.70030624 31.01337479 1.71701874 31.85096832 1.73423767 32.71394348 C1.81914061 36.03673288 1.94250673 38.82752018 3 42 C2.34 42.66 1.68 43.32 1 44 C-0.14315747 41.71368506 -0.12112732 40.45652594 -0.11352539 37.91748047 C-0.11344986 37.07675995 -0.11337433 36.23603943 -0.11329651 35.36984253 C-0.10813522 34.46146637 -0.10297394 33.55309021 -0.09765625 32.6171875 C-0.0962413 31.68778351 -0.09482635 30.75837952 -0.09336853 29.80081177 C-0.08776053 26.82550876 -0.07520668 23.85028036 -0.0625 20.875 C-0.05748603 18.86067817 -0.05292295 16.84635516 -0.04882812 14.83203125 C-0.0377885 9.88799198 -0.02051849 4.94400865 0 0 Z " fill="#3E3F44" transform="translate(168,143)"/>
<path d="M0 0 C0.99 0 1.98 0 3 0 C3 4.29 3 8.58 3 13 C2.01 12.67 1.02 12.34 0 12 C-1.1898306 9.6203388 -1.13349966 8.08514265 -1.125 5.4375 C-1.12886719 4.22900391 -1.12886719 4.22900391 -1.1328125 2.99609375 C-1 1 -1 1 0 0 Z " fill="#58595E" transform="translate(149,171)"/>
<path d="M0 0 C8.04957419 -0.15783479 13.3080984 0.50766065 19.3125 6.1875 C19.869375 6.785625 20.42625 7.38375 21 8 C20.67 8.66 20.34 9.32 20 10 C19.00419922 9.09507813 19.00419922 9.09507813 17.98828125 8.171875 C14.49791667 5.63508714 11.27363385 4.49343595 7.1875 3.25 C6.49462891 3.02957031 5.80175781 2.80914062 5.08789062 2.58203125 C3.39497932 2.04496973 1.69788842 1.52111292 0 1 C0 0.67 0 0.34 0 0 Z " fill="#6E7176" transform="translate(195,83)"/>
<path d="M0 0 C0.33 0.99 0.66 1.98 1 3 C-8.02417777 3.69037426 -16.94361322 4.15178302 -26 4 C-26 3.67 -26 3.34 -26 3 C-22.04191662 2.49800786 -18.08349396 1.99874328 -14.125 1.5 C-12.99707031 1.35691406 -11.86914062 1.21382812 -10.70703125 1.06640625 C-9.63066406 0.93105469 -8.55429688 0.79570312 -7.4453125 0.65625 C-6.45031738 0.53056641 -5.45532227 0.40488281 -4.43017578 0.27539062 C-2 0 -2 0 0 0 Z " fill="#43474E" transform="translate(209,191)"/>
<path d="M0 0 C0 0.66 0 1.32 0 2 C-0.61875 2.061875 -1.2375 2.12375 -1.875 2.1875 C-4.2167911 2.79831899 -4.2167911 2.79831899 -5 5.1875 C-5.495 6.5796875 -5.495 6.5796875 -6 8 C-7.29788956 10.02318078 -8.62464661 12.02866014 -10 14 C-10.99 13.67 -11.98 13.34 -13 13 C-11.63886645 8.77604752 -9.84515115 6.57106374 -6.5 3.6875 C-5.7059375 2.99011719 -4.911875 2.29273438 -4.09375 1.57421875 C-2 0 -2 0 0 0 Z " fill="#3F4249" transform="translate(90,148)"/>
<path d="M0 0 C-0.99 1.485 -0.99 1.485 -2 3 C-4.24658203 3.43237305 -4.24658203 3.43237305 -7.0078125 3.51171875 C-8.48701172 3.56489258 -8.48701172 3.56489258 -9.99609375 3.61914062 C-11.02863281 3.64169922 -12.06117188 3.66425781 -13.125 3.6875 C-14.16527344 3.72166016 -15.20554688 3.75582031 -16.27734375 3.79101562 C-18.85145507 3.87367058 -21.42521829 3.94276155 -24 4 C-21.33294205 1.33294205 -19.71479741 1.64735033 -16 1.4375 C-10.35999372 1.10533617 -5.73663278 -0.09252634 0 0 Z " fill="#3B3E45" transform="translate(189,193)"/>
<path d="M0 0 C0.66 0 1.32 0 2 0 C3.28571429 8.42857143 3.28571429 8.42857143 2 13 C1.01 13 0.02 13 -1 13 C-1.02686553 11.02090602 -1.04633375 9.04171029 -1.0625 7.0625 C-1.07410156 5.96035156 -1.08570312 4.85820312 -1.09765625 3.72265625 C-1 1 -1 1 0 0 Z " fill="#414246" transform="translate(115,185)"/>
<path d="M0 0 C0.33 0 0.66 0 1 0 C1 4.29 1 8.58 1 13 C2.32 12.67 3.64 12.34 5 12 C5.33 12.99 5.66 13.98 6 15 C5.01 15.99 4.02 16.98 3 18 C2.67 17.34 2.34 16.68 2 16 C1.34 16 0.68 16 0 16 C0 10.72 0 5.44 0 0 Z " fill="#1A1D22" transform="translate(164,173)"/>
<path d="M0 0 C0 0.99 0 1.98 0 3 C-3.3 3.33 -6.6 3.66 -10 4 C-10 3.01 -10 2.02 -10 1 C-6.78548731 -0.60725635 -3.56387464 -0.05748185 0 0 Z " fill="#696A6F" transform="translate(128,171)"/>
<path d="M0 0 C0.33 0.99 0.66 1.98 1 3 C3.01508358 3.73323796 3.01508358 3.73323796 5 4 C4.01 4 3.02 4 2 4 C1.67 5.98 1.34 7.96 1 10 C0.01 10 -0.98 10 -2 10 C-2.25 3.375 -2.25 3.375 0 0 Z " fill="#5B5D62" transform="translate(117,172)"/>
<path d="M0 0 C-4.13791677 2.75861118 -6.71703018 4.27302852 -11.75 4.125 C-12.54921875 4.10695312 -13.3484375 4.08890625 -14.171875 4.0703125 C-14.77515625 4.04710937 -15.3784375 4.02390625 -16 4 C-11.51179636 -0.48820364 -5.94325078 -0.20493968 0 0 Z " fill="#52555C" transform="translate(106,144)"/>
<path d="M0 0 C0.66 0 1.32 0 2 0 C2 1.65 2 3.3 2 5 C0.54257537 5.08096803 -0.91612807 5.13917774 -2.375 5.1875 C-3.18710938 5.22230469 -3.99921875 5.25710937 -4.8359375 5.29296875 C-5.55007812 5.19628906 -6.26421875 5.09960938 -7 5 C-7.66 4.01 -8.32 3.02 -9 2 C-7.329375 2.061875 -7.329375 2.061875 -5.625 2.125 C-1.95633975 2.41121859 -1.95633975 2.41121859 0 0 Z " fill="#9A9CA3" transform="translate(180,184)"/>
<path d="M0 0 C1.32 0.33 2.64 0.66 4 1 C4 6.28 4 11.56 4 17 C3.34 16.67 2.68 16.34 2 16 C2 12.04 2 8.08 2 4 C0.68 4 -0.64 4 -2 4 C-1.34 2.68 -0.68 1.36 0 0 Z " fill="#414247" transform="translate(171,81)"/>
<path d="M0 0 C1.32 0 2.64 0 4 0 C4.66 1.65 5.32 3.3 6 5 C5.01 5.33 4.02 5.66 3 6 C0.8125 4.5625 0.8125 4.5625 -1 3 C-0.67 2.01 -0.34 1.02 0 0 Z " fill="#111318" transform="translate(93,174)"/>
<path d="M0 0 C0.66 0.66 1.32 1.32 2 2 C-2.62 2.33 -7.24 2.66 -12 3 C-8.33848913 -0.66151087 -4.94233755 -1.60292029 0 0 Z " fill="#05060B" transform="translate(150,194)"/>
<path d="M0 0 C0 0.66 0 1.32 0 2 C-1.24735567 2.6509259 -2.49801832 3.29551669 -3.75 3.9375 C-4.44609375 4.29714844 -5.1421875 4.65679687 -5.859375 5.02734375 C-7.90224433 5.95558182 -9.81115376 6.53166578 -12 7 C-12 6.34 -12 5.68 -12 5 C-3.29032258 0 -3.29032258 0 0 0 Z " fill="#24262A" transform="translate(215,106)"/>
<path d="M0 0 C0.33 0 0.66 0 1 0 C1.02693575 2.12493141 1.04636628 4.24995912 1.0625 6.375 C1.07410156 7.55835938 1.08570313 8.74171875 1.09765625 9.9609375 C1 13 1 13 0 15 C-0.66 15 -1.32 15 -2 15 C-1.855625 14.01 -1.71125 13.02 -1.5625 12 C-0.99074821 8.00590535 -0.49180166 4.00467063 0 0 Z " fill="#3D4148" transform="translate(218,224)"/>
<path d="M0 0 C0.66 0 1.32 0 2 0 C0.85569823 3.87302138 -0.23320098 7.00263439 -3 10 C-3.66 10 -4.32 10 -5 10 C-3.66749209 6.4124787 -2.169283 3.1635377 0 0 Z " fill="#36373C" transform="translate(188,178)"/>
<path d="M0 0 C-3.465 2.97 -3.465 2.97 -7 6 C-7.33 4.02 -7.66 2.04 -8 0 C-2.25 -1.125 -2.25 -1.125 0 0 Z " fill="#15171C" transform="translate(155,157)"/>
<path d="M0 0 C0.66 0.33 1.32 0.66 2 1 C1.67 1.99 1.34 2.98 1 4 C-4.28 3.67 -9.56 3.34 -15 3 C-15 2.67 -15 2.34 -15 2 C-10.38 2 -5.76 2 -1 2 C-0.67 1.34 -0.34 0.68 0 0 Z " fill="#2E2F34" transform="translate(138,176)"/>
<path d="M0 0 C2.31 0.33 4.62 0.66 7 1 C6.01 1.495 6.01 1.495 5 2 C3.86649466 4.01669827 3.86649466 4.01669827 3 6 C2.34 6 1.68 6 1 6 C1.20625 5.38125 1.4125 4.7625 1.625 4.125 C1.74875 3.42375 1.8725 2.7225 2 2 C1.34 1.34 0.68 0.68 0 0 Z " fill="#53575F" transform="translate(100,201)"/>
<path d="M0 0 C1.98 0.66 3.96 1.32 6 2 C5.67 2.66 5.34 3.32 5 4 C3.02 4 1.04 4 -1 4 C-1 1 -1 1 0 0 Z " fill="#575B63" transform="translate(211,190)"/>
<path d="M0 0 C2.64 0 5.28 0 8 0 C7.01 1.485 7.01 1.485 6 3 C3.375 3.1875 3.375 3.1875 1 3 C0.67 2.01 0.34 1.02 0 0 Z " fill="#D6D9DE" transform="translate(172,184)"/>
<path d="M0 0 C0 0.66 0 1.32 0 2 C-1.65 2.66 -3.3 3.32 -5 4 C-5 4.66 -5 5.32 -5 6 C-5.99 6 -6.98 6 -8 6 C-6.56530686 1.69592058 -4.58010985 0 0 0 Z " fill="#16171C" transform="translate(208,107)"/>
<path d="M0 0 C3.71599191 -0.20086443 4.77208445 -0.1519437 8 2 C8 2.66 8 3.32 8 4 C4.31245243 3.50168276 2.39509338 2.89932357 0 0 Z " fill="#92959A" transform="translate(199,81)"/>
<path d="M0 0 C0.99 0.33 1.98 0.66 3 1 C2.34 1 1.68 1 1 1 C1.061875 1.928125 1.12375 2.85625 1.1875 3.8125 C1 7 1 7 -0.5 8.875 C-1.2425 9.431875 -1.2425 9.431875 -2 10 C-1.46274105 6.62294375 -0.88935377 3.303314 0 0 Z " fill="#52545C" transform="translate(88,199)"/>
<path d="M0 0 C2 2 2 2 2.1953125 4.1640625 C2.16050781 5.38222656 2.16050781 5.38222656 2.125 6.625 C2.10695313 7.44226563 2.08890625 8.25953125 2.0703125 9.1015625 C2.04710938 9.72804687 2.02390625 10.35453125 2 11 C1.67 11 1.34 11 1 11 C0.855625 10.2575 0.71125 9.515 0.5625 8.75 C0.05253619 6.07834232 0.05253619 6.07834232 -0.625 3.8125 C-1 2 -1 2 0 0 Z " fill="#292A2E" transform="translate(112,185)"/>
<path d="M0 0 C0 0.99 0 1.98 0 3 C-1.2065625 3.433125 -1.2065625 3.433125 -2.4375 3.875 C-5.1326468 4.73262568 -5.1326468 4.73262568 -6 7 C-6 4 -6 4 -4.125 1.8125 C-2 0 -2 0 0 0 Z " fill="#1A1D22" transform="translate(168,163)"/>
<path d="M0 0 C0.33 0.99 0.66 1.98 1 3 C-0.3125 5.1875 -0.3125 5.1875 -2 7 C-2.66 7 -3.32 7 -4 7 C-2.92598892 4.08482708 -2.22189824 2.22189824 0 0 Z " fill="#51555E" transform="translate(104,206)"/>
<path d="M0 0 C0.99 0 1.98 0 3 0 C3 1.98 3 3.96 3 6 C2.01 6.495 2.01 6.495 1 7 C0.67 4.69 0.34 2.38 0 0 Z " fill="#3C3F46" transform="translate(74,178)"/>
</svg>
